PathFileType	4	(X/Y/Z)	Static_1_OpenSim.trc																																																																																																																																								
DataRate	CameraRate	NumFrames	NumMarkers	Units	OrigDataRate	OrigDataStartFrame	OrigNumFrames																																																																																																																																				
100	100	9	46	mm	100	490	559																																																																																																																																				
Frame#	Time	R.Acromium			L.Acromium			Sternum			R.Bicep			L.Bicep			R.Elbow			L.Elbow			R.Wrist.Med			R.Wrist.Lat			L.Wrist.Med			L.Wrist.Lat			R.ASIS			R.PSIS			S2			L.PSIS			L.ASIS			R.TH1			R.TH2			R.TH3			R.Knee			R.SH1			R.SH2			R.SH3			R.SH4			R.Ankle			R.Heel			R.MT5			R.MT1			R.Toe.Tip			L.TH1			L.TH2			L.TH3			L.TH4			L.Knee			L.SH1			L.SH2			L.SH3			L.Ankle			L.Heel			L.MT5			L.MT1			L.Toe.Tip			R.MKnee			R.MAnkle			L.MKnee			L.MAnkle		
		X1	Y1	Z1	X2	Y2	Z2	X3	Y3	Z3	X4	Y4	Z4	X5	Y5	Z5	X6	Y6	Z6	X7	Y7	Z7	X8	Y8	Z8	X9	Y9	Z9	X10	Y10	Z10	X11	Y11	Z11	X12	Y12	Z12	X13	Y13	Z13	X14	Y14	Z14	X15	Y15	Z15	X16	Y16	Z16	X17	Y17	Z17	X18	Y18	Z18	X19	Y19	Z19	X20	Y20	Z20	X21	Y21	Z21	X22	Y22	Z22	X23	Y23	Z23	X24	Y24	Z24	X25	Y25	Z25	X26	Y26	Z26	X27	Y27	Z27	X28	Y28	Z28	X29	Y29	Z29	X30	Y30	Z30	X31	Y31	Z31	X32	Y32	Z32	X33	Y33	Z33	X34	Y34	Z34	X35	Y35	Z35	X36	Y36	Z36	X37	Y37	Z37	X38	Y38	Z38	X39	Y39	Z39	X40	Y40	Z40	X41	Y41	Z41	X42	Y42	Z42	X43	Y43	Z43	X44	Y44	Z44	X45	Y45	Z45	X46	Y46	Z46
																																																																																																																																											
490	4.89	944.7379	1482.0408	-324.8042	905.1292	1480.6929	-754.5798	1033.6282	1301.2598	-545.2821	957.0489	1260.4605	-297.7218	920.4607	1257.5196	-781.024	902.1167	1135.9902	-252.8187	865.6265	1138.2776	-815.1636	1029.5404	903.7886	-278.7369	978.4356	892.8959	-239.1758	988.813	908.7067	-800.0928	938.8627	901.6721	-839.215	1002.2932	1015.03	-426.4352	809.5738	1049.0273	-480.9468	797.8597	1038.2562	-535.9387	800.2966	1046.9111	-606.1375	985.3635	1013.4497	-677.8496	971.1894	766.9718	-343.0613	888.7885	766.7511	-339.7063	888.1189	656.8812	-344.5706	917.7802	523.0651	-360.0042	884.8739	408.4647	-329.2778	883.9074	295.6187	-326.1784	809.027	410.2233	-361.8099	806.9835	296.998	-352.3083	858.741	91.9804	-349.3138	809.2097	55.9823	-423.7468	952.1628	32.7787	-297.8194	1013.4253	37.73	-392.2139	1050.447	47.8062	-328.3848	939.5581	774.1554	-749.3323	930.4053	667.3204	-752.0851	854.6927	777.8665	-742.9691	851.0849	668.1639	-735.7587	884.7963	528.5974	-727.7953	871.8033	419.7241	-756.6785	790.9208	422.5507	-743.9886	790.3217	312.352	-742.6217	839.093	92.832	-737.7415	785.2527	52.5201	-668.0586	926.774	32.3652	-791.9742	990.7072	36.4668	-696.4655	1030.8861	45.9253	-765.499	920.9242	503.0839	-471.0596	895.4889	99.7765	-434.2604	904.6879	503.0831	-619.3016	873.749	105.3825	-654.6582
491	4.9	944.8562	1482.0315	-324.7599	905.1257	1480.7118	-754.683	1033.5031	1300.7877	-544.7989	957.1989	1260.4499	-297.7714	920.5065	1257.4963	-781.0439	902.2305	1136.0034	-252.8408	865.6463	1138.2522	-815.1735	1029.6173	903.4913	-278.7913	978.7963	892.9357	-239.0465	988.8094	908.8491	-799.8342	938.8902	901.6253	-839.2147	1002.407	1014.9783	-426.49	809.687	1049.0466	-480.9848	797.8947	1038.2913	-535.9327	800.4033	1046.9427	-606.1591	985.4481	1013.4466	-677.862	971.2997	766.9638	-343.1066	888.8839	766.7386	-339.8269	888.2419	656.9036	-344.5486	917.8419	523.0906	-360.0409	884.9241	408.5007	-329.2915	883.9344	295.6373	-326.1908	809.0797	410.208	-361.764	807.0583	297.0186	-352.2788	858.7371	91.9926	-349.3064	809.2026	55.9992	-423.7418	952.1783	32.7704	-297.8311	1013.4117	37.7323	-392.238	1050.4313	47.7947	-328.4117	939.6243	774.2989	-749.4904	930.5018	667.2912	-752.1248	854.7701	777.8997	-743.0195	851.1586	668.1756	-735.8015	884.8471	528.5635	-727.7978	871.7745	419.6676	-756.7237	790.9432	422.5633	-744.0378	790.3592	312.3874	-742.6208	839.0024	92.7759	-737.7507	785.2445	52.5249	-668.1121	926.8114	32.3388	-791.9996	990.6664	36.4114	-696.5073	1030.8843	45.8709	-765.413	920.9622	503.0923	-471.08	895.5023	99.7501	-434.2857	904.7039	503.048	-619.299	873.7829	105.4117	-654.6637
492	4.91	944.9945	1482.025	-324.8377	905.0909	1480.6392	-754.7671	1033.6307	1300.8202	-544.8272	957.3225	1260.4675	-297.7938	920.5736	1257.5264	-781.0426	902.3422	1136.0113	-252.8462	865.6399	1138.2304	-815.1699	1029.686	903.4537	-278.8472	978.9253	892.9965	-239.034	988.8525	908.8936	-799.8357	938.9519	901.6392	-839.2054	1002.5082	1014.9806	-426.539	809.769	1049.0776	-481.0107	798.1113	1038.2803	-536.0055	800.5699	1046.9369	-606.275	985.5883	1013.535	-678.0765	971.4229	766.9869	-343.1551	888.9612	766.7305	-339.8355	888.378	656.8724	-344.5802	917.9016	523.1395	-360.0248	884.9618	408.5082	-329.3099	883.9507	295.6508	-326.1712	809.0865	410.2215	-361.8485	807.0463	297.0326	-352.3082	858.6924	91.9921	-349.3723	809.2131	55.9871	-423.7265	952.1602	32.8004	-297.8223	1013.4121	37.7544	-392.2167	1050.4237	47.832	-328.408	939.7289	774.2831	-749.3625	930.6135	667.4167	-752.1994	854.8204	777.9678	-743.0269	851.2244	668.2316	-735.8661	884.8813	528.6359	-727.7981	871.7895	419.7279	-756.739	790.9967	422.5926	-744.0188	790.3481	312.4322	-742.6267	839.1175	92.8583	-737.7368	785.2508	52.536	-668.0809	926.7606	32.3694	-791.973	990.6852	36.4559	-696.4616	1030.9083	45.9407	-765.4328	920.9797	503.0433	-471.0892	895.5352	99.8015	-434.2986	904.7261	503.048	-619.3061	873.767	105.4437	-654.6517
493	4.92	945.0972	1482.0258	-324.8511	905.1379	1480.6794	-754.8879	1033.7006	1300.7883	-544.8817	957.4456	1260.4708	-297.8548	920.6802	1257.6033	-781.047	902.4571	1136.026	-252.8663	865.708	1138.2443	-815.1739	1029.7939	903.7738	-278.8366	978.8179	892.9757	-239.1867	988.9434	908.7946	-800.0822	939.0255	901.6195	-839.2103	1002.6643	1014.9717	-426.5763	809.9401	1049.0496	-481.0395	798.2347	1038.2822	-535.9961	800.715	1046.9299	-606.2514	985.6949	1013.557	-678.1132	971.5349	766.9937	-343.193	889.0454	766.7455	-339.7512	888.4706	656.8781	-344.6019	917.95	523.1267	-360.0269	885.0256	408.561	-329.2791	883.9809	295.6464	-326.211	809.1874	410.2737	-361.7883	807.1326	297.0662	-352.2874	858.6894	92.0182	-349.3504	809.2415	55.9944	-423.7172	952.1558	32.822	-297.8239	1013.4241	37.8028	-392.207	1050.4132	47.854	-328.389	939.8375	774.3157	-749.5493	930.7687	667.4349	-752.2164	854.9215	777.9826	-743.0812	851.3487	668.2058	-735.8755	884.9633	528.5614	-727.7885	871.8787	419.6827	-756.7138	791.0587	422.6054	-744.0467	790.46	312.4111	-742.5977	839.064	92.83	-737.712	785.2562	52.57	-668.0749	926.7882	32.4117	-791.981	990.7144	36.5424	-696.4542	1030.9127	45.9706	-765.4353	921.0235	503.0804	-471.1179	895.5237	99.8178	-434.3108	904.6182	503.2351	-619.6063	873.7335	105.4045	-654.6476
494	4.93	945.2011	1482.0183	-324.8704	905.1309	1480.692	-754.9587	1033.837	1300.7926	-544.9246	957.5577	1260.439	-297.8558	920.6929	1257.5117	-781.0869	902.5922	1135.9999	-252.8884	865.7618	1138.2401	-815.1934	1029.8904	903.7499	-278.871	979.0239	892.9852	-239.1933	988.9961	908.7404	-800.1205	938.7905	901.5373	-839.2443	1002.8126	1014.9617	-426.6194	810.0241	1049.0618	-481.0533	798.35	1038.3108	-536.0027	800.8746	1046.9507	-606.3001	985.801	1013.5253	-678.1403	971.6481	766.9796	-343.2313	889.1535	766.6789	-339.8406	888.6766	656.855	-344.5405	918.019	523.0884	-360.0922	885.0768	408.5415	-329.3297	884.0131	295.6391	-326.2227	809.2217	410.2783	-361.8304	807.1519	297.0785	-352.2882	858.7631	92.0045	-349.335	809.2206	56.014	-423.7623	952.1796	32.8046	-297.8189	1013.4201	37.7355	-392.2108	1050.4404	47.8088	-328.3988	939.9092	774.2899	-749.4587	930.8355	667.3585	-752.2141	854.9579	777.9966	-743.0804	851.4301	668.2169	-735.9183	885.0632	528.5546	-727.8247	871.902	419.6772	-756.7523	791.1516	422.571	-744.0097	790.4904	312.427	-742.6105	839.1	92.8265	-737.7192	785.2567	52.5474	-668.0643	926.7911	32.401	-791.9786	990.6898	36.4783	-696.4774	1030.8987	45.931	-765.4711	921.0607	503.0207	-471.1283	895.5449	99.8093	-434.3025	904.6746	503.2371	-619.6129	873.771	105.426	-654.6541
495	4.94	945.3506	1481.986	-324.9247	905.2038	1480.6605	-754.918	1033.9377	1300.7555	-544.9854	957.6938	1260.4	-297.9342	920.7445	1257.4419	-781.1517	902.6558	1136.0236	-252.8339	865.8489	1138.2153	-815.2242	1029.9941	903.7924	-278.8207	979.1519	892.9634	-239.1638	989.0424	908.7135	-800.1464	939.1942	901.6034	-839.2382	1002.9432	1014.8993	-426.6423	810.1736	1049.0193	-481.0854	798.4499	1038.3081	-536.0309	801	1046.9265	-606.3282	985.903	1013.4013	-677.9784	971.773	766.9504	-343.2659	889.0601	766.7312	-339.1772	888.8002	656.8762	-344.5522	918.0392	523.0652	-360.1395	885.1345	408.5177	-329.3203	884.0731	295.6447	-326.2304	809.3091	410.2258	-361.8496	807.1979	297.1034	-352.3102	858.779	91.9995	-349.3426	809.2373	55.9765	-423.747	952.1995	32.7771	-297.8235	1013.53	37.0964	-391.5838	1050.4432	47.8044	-328.3612	939.9983	774.3034	-749.6178	930.8552	667.3081	-752.1636	855.0723	777.9987	-743.1152	851.5242	668.2007	-735.9454	885.2134	528.5924	-727.8551	871.9776	419.706	-756.7493	791.1943	422.554	-744.034	790.5248	312.4469	-742.6347	839.1154	92.866	-737.7211	785.2717	52.5424	-668.0872	926.7985	32.3678	-791.9992	990.7177	36.4401	-696.4973	1030.8981	45.8977	-765.4443	921.1249	503.004	-471.1465	895.5813	99.7918	-434.3244	904.9099	503.0312	-619.3665	873.8057	105.3832	-654.6475
496	4.95	945.532	1481.9584	-324.9954	905.2441	1480.6765	-754.9959	1034.0298	1300.7374	-545.0478	957.797	1260.3816	-297.9703	920.8389	1257.433	-781.154	902.805	1136.0277	-252.8334	865.9413	1138.1874	-815.2739	1030.0936	903.4299	-278.9208	979.5026	893.0316	-238.9282	989.129	908.7445	-800.1534	939.2898	901.6066	-839.2885	1003.1935	1014.8544	-426.7955	810.2732	1049.032	-481.1068	798.6371	1038.2675	-536.0574	801.1002	1046.9382	-606.3657	986.0207	1013.3906	-678.018	971.9107	766.9285	-343.2949	889.1591	766.7085	-339.1863	888.9698	656.8578	-344.5486	918.1514	523.0671	-360.173	885.2219	408.5226	-329.3037	884.1041	295.6321	-326.2566	809.3461	410.229	-361.8702	807.2337	297.101	-352.3621	858.7501	92.0051	-349.3583	809.2426	55.9736	-423.7246	952.2079	32.7626	-297.8123	1013.4282	37.7124	-392.2275	1050.4492	47.7728	-328.3847	940.0753	774.2502	-749.5053	930.9719	667.3467	-752.2694	855.1838	777.9864	-743.134	851.6116	668.1854	-735.9391	885.2651	528.5472	-727.8624	871.9976	419.7044	-756.7866	791.2964	422.5759	-744.0197	790.5782	312.4717	-742.6099	839.0661	92.8318	-737.7528	785.2747	52.5378	-668.0757	926.7929	32.313	-792.0085	990.7354	36.4223	-696.4768	1030.9133	45.8731	-765.4517	921.1938	503.0218	-471.1571	895.5872	99.7812	-434.3172	904.9553	503.0034	-619.3984	873.8408	105.4055	-654.6255
497	4.96	945.7088	1481.9475	-325.0702	905.2888	1480.6704	-755.0142	1034.1033	1300.7273	-545.1224	957.9127	1260.4183	-297.9993	920.8871	1257.4584	-781.2221	902.9872	1136.0841	-252.7711	865.9565	1138.2109	-815.2854	1030.2147	903.6885	-278.9544	979.3813	892.9985	-239.1285	989.1888	908.7808	-800.1912	939.3481	901.6213	-839.3353	1003.3539	1014.8602	-426.7806	810.3704	1049.0238	-481.1416	798.7017	1038.309	-536.0792	801.191	1046.9613	-606.355	986.0964	1013.4	-678.0349	972.0415	766.9491	-343.328	889.2383	766.7344	-339.1977	889.0909	656.8619	-344.5899	918.222	523.0877	-360.224	885.2823	408.5694	-329.333	884.143	295.6614	-326.2878	809.4215	410.2458	-361.8411	807.2625	297.1453	-352.3105	858.7763	92.0139	-349.3529	809.1796	55.9933	-423.8	952.191	32.8061	-297.8323	1013.4246	37.7099	-392.2049	1050.446	47.792	-328.3994	940.1197	774.3258	-749.6459	931.0291	667.3403	-752.2673	855.2533	778.0789	-743.1898	851.654	668.205	-735.9661	885.3049	528.5258	-727.9081	872.0853	419.7144	-756.7902	791.3754	422.6083	-744.0442	790.626	312.5057	-742.5968	839.0702	92.8375	-737.7543	785.2645	52.5398	-668.0627	926.7759	32.3097	-791.9832	990.7175	36.4489	-696.4731	1030.9338	45.8757	-765.4769	921.2241	503.0208	-471.1967	895.5524	99.777	-434.3121	904.9924	503.004	-619.4368	873.8288	105.394	-654.6435
498	4.97	945.8424	1481.9768	-325.0581	905.3709	1480.7152	-754.9586	1034.2043	1300.7753	-545.1927	958.0461	1260.4279	-298.0887	920.9647	1257.5453	-781.2471	903.1487	1136.0662	-252.817	866.0586	1138.1995	-815.3163	1030.2756	903.4714	-278.922	979.6484	893.047	-238.9428	989.2657	908.8503	-800.24	939.4561	901.6618	-839.371	1003.4681	1014.8662	-426.793	810.4612	1049.0732	-481.1797	798.8306	1038.3247	-536.1091	801.3128	1046.9664	-606.4263	986.2214	1013.442	-678.08	972.1302	766.9723	-343.3614	889.3697	766.7466	-339.2853	889.2754	656.8295	-344.6374	918.3013	523.1544	-360.1863	885.3019	408.5979	-329.3812	884.1473	295.6783	-326.2478	809.4374	410.2762	-361.9156	807.2625	297.166	-352.3519	858.7497	92.0625	-349.3271	809.2223	55.9947	-423.7892	952.1707	32.8497	-297.8297	1013.4238	37.7605	-392.2257	1050.4329	47.8067	-328.3973	940.2437	774.3383	-749.5598	931.0529	667.3709	-752.2695	855.3794	778.0925	-743.2202	851.772	668.2265	-736.0156	885.4468	528.6429	-727.9361	872.1322	419.7258	-756.797	791.4575	422.6579	-744.0591	790.6962	312.5641	-742.629	839.1088	92.8685	-737.7117	785.2607	52.5991	-668.0649	926.7694	32.3869	-791.9789	990.7053	36.4489	-696.4816	1030.9143	45.9026	-765.502	921.3371	503.1078	-471.1895	895.5409	99.8264	-434.3215	905.0444	503.0631	-619.4409	873.81	105.414	-654.6319
